<?xml version="1.0" encoding="utf-8"?>
<!-- Generator: Adobe Illustrator 25.0.0, SVG Export Plug-In . SVG Version: 6.00 Build 0)  -->
<svg version="1.1" id="Слой_1" xmlns="http://www.w3.org/2000/svg" xmlns:xlink="http://www.w3.org/1999/xlink" x="0px" y="0px"
	 viewBox="0 0 1000 1000" style="enable-background:new 0 0 1000 1000;" xml:space="preserve">
<style type="text/css">
	.st0{fill:#CCF511;stroke:#CCF511;stroke-width:4;stroke-miterlimit:10;}
	.st1{fill:none;stroke:#CCF511;stroke-width:20;stroke-linecap:round;stroke-miterlimit:10;}
	.st2{fill:none;stroke:#CCF511;stroke-width:21;stroke-linecap:round;stroke-miterlimit:10;}
</style>
<g>
	<path class="st0" d="M660,588c-36,2-84,49-120.91,56.33c-32.48,6.45-66.59,5.69-97.4-6.45c-27.44-10.81-51.65-29.28-69.41-52.83
		c-18.09-23.99-29.18-52.92-31.71-82.86c-2.58-30.48,3.61-61.45,17.9-88.52c13.74-26.03,34.68-48.07,59.96-63.14
		c26.48-15.79,57.3-23.57,88.1-22.43c36.66,1.36,70.31,18,100.47,38.89c27.68,19.18,56,21,56,21l113.62-129.45
		C723.79,199.85,645.75,164.94,547,160c-200-10-352,131.37-352,325.5S353,830,547,816c99.22-7.16,177.63-41.89,230.5-100.16L660,588
		z"/>
</g>
<path class="st1" d="M396,482c-0.26-5.55-1.39-42.9,28.48-71.5c28.96-27.72,64.78-25.89,70.52-25.5"/>
<line class="st2" x1="710.5" y1="421" x2="710.5" y2="556"/>
<line class="st2" x1="747.5" y1="441.5" x2="747.5" y2="535.5"/>
<line class="st2" x1="784.5" y1="459.5" x2="784.5" y2="517.5"/>
</svg>
